<svg xmlns="http://www.w3.org/2000/svg" viewBox="0 0 254.95 76.98"><defs><style>.cls-1,.cls-17,.cls-2{isolation:isolate;}.cls-2{font-size:66.63px;font-family:CoolveticaRg-Regular, Coolvetica;}.cls-2,.cls-3{fill:#fff;}.cls-4{fill:#ff7e2d;}.cls-5{fill:#f9b76d;}.cls-6{fill:#d7ab66;}.cls-7{fill:#009bff;}.cls-8{fill:#375a74;}.cls-9{fill:#ffdf7c;}.cls-10{fill:#6089ff;}.cls-11{fill:#addb71;}.cls-12{fill:#3b3229;}.cls-13{fill:#8b8065;}.cls-14{fill:#a8e2f8;stroke:#6292a5;}.cls-15{fill:#b5e4ff;stroke:#f2f2f2;}.cls-15,.cls-16{stroke-linecap:square;stroke-linejoin:round;stroke-width:2px;}.cls-16{fill:#e6fff3;stroke:#e2f3eb;}.cls-17{fill:#f2fff8;opacity:0.9;}</style></defs><g id="Layer_2" data-name="Layer 2"><g id="Layer_1-2" data-name="Layer 1"><g id="dharti" class="cls-1"><text class="cls-2" transform="translate(72.33 61.46)">dharti</text></g><path id="Path_23" data-name="Path 23" class="cls-3" d="M255,8.62a8.6,8.6,0,1,0-17.2,0v0a8.54,8.54,0,0,0,8.52,8.58h.06A8.58,8.58,0,0,0,255,8.65Zm-1.39,0a7.23,7.23,0,0,1-7.22,7.24h0a7.24,7.24,0,0,1-7.24-7.23h0a7.24,7.24,0,0,1,7.23-7.23h0a7.23,7.23,0,0,1,7.23,7.22Zm-6.42-3a1,1,0,0,1,1.16,1.08c0,.58-.36,1-1.21,1H245V5.66Zm2.47,6.51V9.93c0-.9-.23-1.31-1-1.53a1.82,1.82,0,0,0,1.17-1.8,2.25,2.25,0,0,0-2.42-2.29h-4v7.86H245V9.07h1.76c.94,0,1.21.32,1.21,1.08v2Z"/><path id="Path_44" data-name="Path 44" class="cls-4" d="M54.79,41.72H4.61V33.27a24.44,24.44,0,0,1,.13-2.57,23,23,0,0,1,.38-2.49,22.42,22.42,0,0,1,.62-2.41,24.39,24.39,0,0,1,.84-2.3,22.08,22.08,0,0,1,1.06-2.19,22.74,22.74,0,0,1,1.25-2.07,25.28,25.28,0,0,1,6.78-6.78q1-.68,2.07-1.26c.71-.38,1.45-.74,2.19-1a23.65,23.65,0,0,1,2.31-.85c.79-.24,1.59-.45,2.4-.62s1.66-.29,2.49-.38,1.71-.13,2.57-.13h0c.86,0,1.71.05,2.57.13s1.66.22,2.49.38,1.61.38,2.4.62a23.65,23.65,0,0,1,2.31.85c.74.31,1.48.67,2.19,1s1.4.81,2.07,1.26a25.28,25.28,0,0,1,6.78,6.78,22.74,22.74,0,0,1,1.25,2.07,22.08,22.08,0,0,1,1.06,2.19,24.39,24.39,0,0,1,.84,2.3,22.42,22.42,0,0,1,.62,2.41,23,23,0,0,1,.38,2.49,24.44,24.44,0,0,1,.13,2.57v8.45Z"/><path id="Path_43" data-name="Path 43" class="cls-5" d="M52.27,40.07H7.18V32a22.15,22.15,0,0,1,.12-2.3c.08-.75.19-1.5.34-2.24S8,26,8.2,25.3A19,19,0,0,1,9,23.23a22.63,22.63,0,0,1,12-12c.68-.28,1.37-.54,2.07-.75s1.44-.41,2.16-.56a21.25,21.25,0,0,1,2.24-.34,22.2,22.2,0,0,1,4.61,0,21.25,21.25,0,0,1,2.24.34c.72.15,1.45.34,2.16.56a21.27,21.27,0,0,1,2.07.75,22.65,22.65,0,0,1,12,12,21.27,21.27,0,0,1,.75,2.07c.22.71.41,1.43.56,2.16a21.25,21.25,0,0,1,.34,2.24,22.15,22.15,0,0,1,.12,2.3Z"/><path id="Path_24" data-name="Path 24" class="cls-6" d="M29.49,62.16c-5.52,0-11,0-16.54,0C4.21,62.09-1.53,54.8.36,46.3a10.93,10.93,0,0,1,5.52-7.17A3.17,3.17,0,0,0,7.7,35.72c-.34-5.63.58-11,3.83-15.75A22,22,0,0,1,51.85,32.12a13.62,13.62,0,0,1,0,1.43c-.3,2.73.2,4.67,2.89,6.47,4.52,3,5.84,8.66,4.12,13.62A12.54,12.54,0,0,1,47,62.14C41.16,62.2,35.32,62.15,29.49,62.16Zm.14-2v0c5.91,0,11.82.08,17.72,0a10.62,10.62,0,0,0,9.7-7.62c1.22-4.14-.09-9-3.94-11.12-3.08-1.65-3.54-3.75-3.25-6.65a21.16,21.16,0,0,0,0-2.39,20.21,20.21,0,0,0-18-20C22.58,11.07,13,17.47,10.58,27c-.86,3.41-.58,7.11-1,10.65A3.33,3.33,0,0,1,8.29,40c-4.79,2.63-7.15,7.13-6,11.83C3.51,57,7.61,60.13,13.11,60.16s11,0,16.52,0Z"/><path id="Path_27" data-name="Path 27" class="cls-7" d="M29.63,60.17c-5.51,0-11,0-16.52,0S3.51,57,2.27,51.85c-1.13-4.7,1.23-9.2,6-11.83A3.33,3.33,0,0,0,9.6,37.69c.4-3.54.12-7.24,1-10.65,2.43-9.57,12-16,21.33-14.71a20.21,20.21,0,0,1,18,20,21.16,21.16,0,0,1,0,2.39c-.29,2.9.17,5,3.25,6.66,3.85,2.06,5.16,7,3.94,11.11a10.62,10.62,0,0,1-9.7,7.62c-5.9.1-11.81,0-17.72,0ZM11.32,41l-1.21.38a8.64,8.64,0,0,0,2.5,17h2.16c10.7,0,21.41.06,32.11,0A8.58,8.58,0,0,0,55,46.46c-1.26-3.17-3.85-4.73-7-5.57,0-2.94,0-5.73,0-8.53A18.23,18.23,0,0,0,31.45,14.13,18,18,0,0,0,12,28.87C11.3,32.76,11.52,36.81,11.32,41Z"/><path id="Path_28" data-name="Path 28" class="cls-8" d="M11.31,41c.21-4.18,0-8.23.68-12.12A18,18,0,0,1,31.45,14.13,18.23,18.23,0,0,1,48,32.36c0,2.8,0,5.59,0,8.53,3.16.84,5.75,2.4,7,5.57a8.58,8.58,0,0,1-8.14,11.83c-10.7.09-21.41,0-32.11,0H12.61a8.64,8.64,0,0,1-2.5-17ZM29.69,56.33c5.5,0,11,0,16.52,0,4,0,7-2.44,7.4-6S51.72,44,47.75,43.11c-1.45-.3-1.77-.94-1.73-2.25.07-2.79,0-5.59,0-8.38A16.44,16.44,0,0,0,29.83,16,16.57,16.57,0,0,0,13.5,32.4c0,2.8-.07,5.59,0,8.38,0,1.47-.44,2-1.94,2.36-3.76.76-6.06,3.76-5.74,7.09.34,3.6,3.28,6.07,7.32,6.09C18.67,56.35,24.18,56.33,29.69,56.33Z"/><path id="Path_29" data-name="Path 29" class="cls-9" d="M29.69,56.33c-5.51,0-11,0-16.53,0-4,0-7-2.49-7.32-6.09-.32-3.33,2-6.33,5.74-7.09,1.5-.31,2-.89,1.94-2.36-.09-2.79-.06-5.58,0-8.38A16.57,16.57,0,0,1,29.83,16,16.44,16.44,0,0,1,46,32.48c0,2.79.05,5.59,0,8.38,0,1.31.28,2,1.73,2.25,4,.84,6.25,3.79,5.86,7.22s-3.36,6-7.4,6C40.7,56.35,35.19,56.33,29.69,56.33Zm.17-1.88c5.51,0,11,0,16.52,0,3.18,0,5.08-1.56,5.37-4.28s-1.52-4.82-4.69-5.26c-2.06-.29-2.93-1.35-2.91-3.34,0-3,0-6.07,0-9.1A14.37,14.37,0,0,0,29.79,17.93a14.52,14.52,0,0,0-14.4,14.55c0,3,0,5.91,0,8.86,0,2.06-.75,3.26-3,3.56-3.16.42-5,2.57-4.71,5.25s2.26,4.28,5.39,4.29C18.69,54.47,24.28,54.45,29.86,54.45Z"/><path id="Path_30" data-name="Path 30" class="cls-10" d="M29.86,54.45c-5.58,0-11.17,0-16.75,0C10,54.43,8,52.8,7.72,50.15s1.55-4.83,4.71-5.25c2.21-.3,3-1.5,3-3.56,0-3,0-5.91,0-8.86a14.52,14.52,0,0,1,14.4-14.55A14.36,14.36,0,0,1,44.14,32.46c0,3,0,6.07,0,9.1,0,2,.86,3,2.92,3.34,3.17.44,5,2.58,4.69,5.26s-2.19,4.27-5.37,4.28C40.87,54.47,35.37,54.45,29.86,54.45Zm-.22-1.92c5.51,0,11,0,16.54,0,1.92,0,3.43-.57,3.57-2.65s-1.31-2.84-3.19-3.13c-3-.45-4.29-2-4.32-5s0-5.91,0-8.86c0-7.36-5.48-13-12.48-13S17.34,25.65,17.3,33c0,3,0,5.91,0,8.86s-1.45,4.55-4.2,4.91c-2,.25-3.56,1-3.37,3.18s1.91,2.63,3.87,2.62C18.94,52.5,24.29,52.53,29.64,52.53Z"/><path id="Path_31" data-name="Path 31" class="cls-11" d="M29.64,52.53c-5.35,0-10.7,0-16,0-2,0-3.69-.41-3.87-2.62s1.39-2.93,3.37-3.19c2.75-.35,4.16-2,4.2-4.9s0-5.91,0-8.86c0-7.33,5.53-13.12,12.45-13.13s12.45,5.67,12.48,13c0,2.95,0,5.91,0,8.86s1.32,4.57,4.32,5c1.88.29,3.33,1.07,3.19,3.13s-1.65,2.67-3.57,2.65C40.67,52.5,35.15,52.53,29.64,52.53Zm-.12-2c5.43,0,10.86,0,16.29,0,.58,0,1.14-.5,1.71-.77a5.45,5.45,0,0,0-1.55-1c-3.82-.93-5.67-3.19-5.69-7.15,0-3,0-5.91,0-8.86,0-6.17-4.48-10.83-10.37-10.9s-10.58,4.76-10.64,11c0,3,0,6.07,0,9.11,0,3.72-2.13,6.09-5.76,6.84a6.82,6.82,0,0,0-1.8,1.09,6.66,6.66,0,0,0,2,.74c5.27.06,10.54,0,15.81,0Z"/><path id="Path_32" data-name="Path 32" class="cls-12" d="M29.52,50.56c-5.27,0-10.54,0-15.81,0a6.66,6.66,0,0,1-2-.74,6.82,6.82,0,0,1,1.8-1.09c3.63-.75,5.71-3.12,5.76-6.84.05-3,0-6.07,0-9.11.06-6.19,4.76-11,10.64-10.95s10.33,4.73,10.37,10.9c0,2.95,0,5.91,0,8.86,0,4,1.87,6.22,5.69,7.15a5.45,5.45,0,0,1,1.55,1c-.57.27-1.13.76-1.71.77C40.38,50.59,35,50.56,29.52,50.56ZM41,48.62c-2.52-4-2.52-4-2.52-8.95,0-2.4,0-4.79,0-7.19a8.69,8.69,0,0,0-8.56-8.82,8.86,8.86,0,0,0-8.74,8.69c-.07,2.07-.05,4.15,0,6.22.06,3.52.28,7-3,10Z"/><path id="Path_33" data-name="Path 33" class="cls-13" d="M41,48.62H18.12c3.27-3,3.05-6.53,3-10,0-2.07-.06-4.15,0-6.22a8.86,8.86,0,0,1,8.74-8.69,8.69,8.69,0,0,1,8.56,8.82c0,2.4,0,4.79,0,7.19C38.43,44.63,38.43,44.63,41,48.62Z"/><path id="Path_34" data-name="Path 34" class="cls-14" d="M39.44,47.8H19.81c2.81-2.78,2.62-6.06,2.57-9.31,0-1.93-.06-3.85,0-5.77.14-4.5,3.54-8.11,7.53-8.06s7.29,3.58,7.36,8.18c0,2.22,0,4.44,0,6.66C37.28,44.1,37.28,44.1,39.44,47.8Z"/><path id="Path_35" data-name="Path 35" class="cls-15" d="M37.87,46.66H21.61c2.33-2.5,2.17-5.44,2.13-8.37,0-1.73,0-3.46,0-5.19.12-4,2.93-7.28,6.23-7.24s6,3.22,6.1,7.35c0,2,0,4,0,6C36.08,43.34,36.08,43.34,37.87,46.66Z"/><path id="Path_36" data-name="Path 36" class="cls-16" d="M36.08,45.89H23.57c1.79-2.29,1.67-5,1.64-7.68,0-1.58,0-3.17,0-4.76.09-3.71,2.25-6.68,4.79-6.64s4.65,3,4.69,6.75c0,1.83,0,3.66,0,5.49C34.7,42.84,34.7,42.84,36.08,45.89Z"/><path id="Path_37" data-name="Path 37" class="cls-17" d="M33.82,42.44h-8c1.14-1.46,1.07-3.18,1-4.9,0-1,0-2,0-3,.05-2.37,1.43-4.27,3.06-4.24s3,1.88,3,4.3c0,1.17,0,2.34,0,3.51C32.94,40.5,32.94,40.5,33.82,42.44Z"/><path id="Path_38" data-name="Path 38" class="cls-3" d="M32.94,41.62H26.7c.9-1.14.84-2.49.82-3.83,0-.79,0-1.58,0-2.37.05-1.85,1.12-3.34,2.39-3.32s2.32,1.48,2.34,3.37c0,.91,0,1.83,0,2.74A5.51,5.51,0,0,0,32.94,41.62Z"/></g></g></svg>