<svg xmlns="http://www.w3.org/2000/svg" viewBox="0 0 326.51 334.36"><defs><style>.cls-1,.cls-2,.cls-3,.cls-5{fill:none;}.cls-2{stroke:#cccbc7;}.cls-2,.cls-20,.cls-21,.cls-3,.cls-5{stroke-width:2px;}.cls-2,.cls-3,.cls-5{stroke-dasharray:4 17;}.cls-3{stroke:#86847d;}.cls-4{opacity:0.5;}.cls-5{stroke:#aca79c;}.cls-22,.cls-6,.cls-7{isolation:isolate;}.cls-7{font-size:62.45px;font-family:CoolveticaRg-Regular, Coolvetica;}.cls-7,.cls-8{fill:#fff;}.cls-9{fill:#ff7e2d;}.cls-10{fill:#fbb96d;}.cls-11{fill:#d9ad66;}.cls-12{fill:#009dff;}.cls-13{fill:#375a74;}.cls-14{fill:#ffe17c;}.cls-15{fill:#608bff;}.cls-16{fill:#afdd71;}.cls-17{fill:#3b3229;}.cls-18{fill:#8d8265;}.cls-19{fill:#aae4fa;stroke:#6294a7;}.cls-20{fill:#b7e6ff;stroke:#f4f4f4;}.cls-20,.cls-21{stroke-linecap:square;stroke-linejoin:round;}.cls-21{fill:#e8fff5;stroke:#e4f5ed;}.cls-22{fill:#f4fffa;opacity:0.9;}</style></defs><g id="Layer_2" data-name="Layer 2"><g id="Layer_1-2" data-name="Layer 1"><g id="Rectangle_9" data-name="Rectangle 9"><path class="cls-1" d="M66.86,169.4V165a96.4,96.4,0,0,1,96.4-96.4h0A96.39,96.39,0,0,1,259.65,165v4.44a96.39,96.39,0,0,1-96.39,96.4h0A96.4,96.4,0,0,1,66.86,169.4Z"/><path class="cls-2" d="M67.2,169.4V165a96.05,96.05,0,0,1,96.06-96.05h0A96,96,0,0,1,259.31,165v4.44a96,96,0,0,1-96.05,96h0A96.05,96.05,0,0,1,67.2,169.4Z"/></g><g id="Rectangle_17" data-name="Rectangle 17"><path class="cls-1" d="M24.89,170.42v-6.48A138.37,138.37,0,0,1,163.26,25.57h0A138.37,138.37,0,0,1,301.63,163.94v6.48A138.37,138.37,0,0,1,163.26,308.79h0A138.37,138.37,0,0,1,24.89,170.42Z"/><path class="cls-3" d="M25.23,170.42v-6.48a138,138,0,0,1,138-138h0a138,138,0,0,1,138,138v6.48a138,138,0,0,1-138,138h0A138,138,0,0,1,25.23,170.42Z"/></g><g id="Rectangle_18" data-name="Rectangle 18" class="cls-4"><path class="cls-1" d="M.66,171.1v-7.84A162.6,162.6,0,0,1,163.26.66h0a162.59,162.59,0,0,1,162.59,162.6v7.84A162.59,162.59,0,0,1,163.26,333.7h0A162.6,162.6,0,0,1,.66,171.1Z"/><path class="cls-3" d="M1,171.1v-7.84A162.25,162.25,0,0,1,163.26,1h0A162.25,162.25,0,0,1,325.51,163.26v7.84A162.25,162.25,0,0,1,163.26,333.36h0A162.25,162.25,0,0,1,1,171.1Z"/></g><g id="Rectangle_16" data-name="Rectangle 16"><path class="cls-1" d="M44.34,169.4V165A118.92,118.92,0,0,1,163.26,46h0A118.92,118.92,0,0,1,282.18,165v4.44A118.92,118.92,0,0,1,163.26,288.32h0A118.92,118.92,0,0,1,44.34,169.4Z"/><path class="cls-5" d="M44.68,169.4V165A118.58,118.58,0,0,1,163.26,46.38h0A118.58,118.58,0,0,1,281.83,165v4.44A118.58,118.58,0,0,1,163.26,288h0A118.58,118.58,0,0,1,44.68,169.4Z"/></g><g id="dharti" class="cls-6"><text class="cls-7" transform="translate(82.68 294.91)">dharti</text></g><path id="Path_23" data-name="Path 23" class="cls-8" d="M250.58,238.59a8.07,8.07,0,1,0-16.13,0v0a8,8,0,0,0,8,8h.05a8.05,8.05,0,0,0,8.09-8Zm-1.31,0a6.78,6.78,0,0,1-6.77,6.78h0a6.78,6.78,0,0,1-6.78-6.77h0a6.78,6.78,0,0,1,6.77-6.78h0a6.78,6.78,0,0,1,6.78,6.77Zm-6-2.78a1,1,0,0,1,1.1,1c0,.55-.34,1-1.14,1h-1.94v-2Zm2.32,6.11v-2.11c0-.84-.21-1.22-.89-1.43a1.69,1.69,0,0,0,1.1-1.68,2.12,2.12,0,0,0-2.28-2.15h-3.74v7.37h1.51V239h1.64c.89,0,1.14.3,1.14,1v1.9Z"/><path id="Path_44" data-name="Path 44" class="cls-9" d="M231.66,174.7H93.86V151.49a70,70,0,0,1,1.4-13.88c.45-2.22,1-4.44,1.7-6.61a66.72,66.72,0,0,1,2.32-6.33c.86-2,1.84-4.07,2.9-6s2.21-3.85,3.45-5.68a69.23,69.23,0,0,1,18.61-18.61c1.83-1.24,3.74-2.4,5.68-3.45s4-2,6-2.9,4.2-1.65,6.33-2.32,4.39-1.24,6.61-1.7a70,70,0,0,1,13.88-1.4h0A70,70,0,0,1,176.65,84c2.22.46,4.44,1,6.6,1.7s4.27,1.45,6.33,2.32,4.07,1.84,6,2.9,3.85,2.21,5.68,3.45A69.09,69.09,0,0,1,219.89,113c1.24,1.83,2.4,3.74,3.46,5.68s2,4,2.9,6,1.65,4.2,2.31,6.33a66.06,66.06,0,0,1,1.7,6.61,70,70,0,0,1,1.4,13.88V174.7Z"/><path id="Path_43" data-name="Path 43" class="cls-10" d="M224.73,170.17H100.94V148a61.21,61.21,0,0,1,2.78-18.41c.6-1.92,1.3-3.83,2.08-5.69A62.09,62.09,0,0,1,138.74,91c1.85-.78,3.77-1.48,5.69-2.08s3.93-1.11,5.93-1.52a60.67,60.67,0,0,1,6.14-.94,62.28,62.28,0,0,1,12.66,0,60.86,60.86,0,0,1,6.15.94c2,.41,4,.92,5.93,1.52s3.83,1.3,5.69,2.08a62.12,62.12,0,0,1,32.94,32.94c.78,1.86,1.48,3.77,2.08,5.69s1.11,3.94,1.52,5.93a61.3,61.3,0,0,1,.94,6.15q.32,3.15.32,6.33Z"/><path id="Path_24" data-name="Path 24" class="cls-11" d="M162.18,230.82c-15.14,0-30.28.09-45.42,0-24-.17-39.76-20.19-34.55-43.53,2-9,7.68-15.34,15.15-19.68,4.22-2.45,5.24-5.07,5-9.36-.93-15.47,1.58-30.09,10.52-43.24a60.52,60.52,0,0,1,110.71,33.35,34.69,34.69,0,0,1,0,3.95c-.83,7.48.54,12.8,7.94,17.74,12.4,8.27,16,23.79,11.29,37.42a34.41,34.41,0,0,1-32.56,23.33C194.22,230.94,178.2,230.82,162.18,230.82Zm.39-5.46v0c16.22,0,32.44.22,48.66-.07,12.2-.22,23.2-9.18,26.64-20.91,3.34-11.36-.27-24.85-10.83-30.53-8.46-4.54-9.72-10.31-8.91-18.27a60,60,0,0,0,0-6.57c-.25-28.35-20.69-51.13-49.34-55-25.6-3.43-51.88,14.14-58.55,40.4-2.38,9.37-1.59,19.52-2.69,29.26-.26,2.29-1.75,5.38-3.61,6.4-13.14,7.2-19.64,19.56-16.52,32.47,3.39,14,14.64,22.74,29.75,22.82s30.25,0,45.37,0Z"/><path id="Path_27" data-name="Path 27" class="cls-12" d="M162.57,225.36c-15.12,0-30.25.06-45.37,0s-26.36-8.78-29.75-22.82c-3.12-12.91,3.38-25.27,16.52-32.47,1.86-1,3.35-4.11,3.61-6.4,1.1-9.74.31-19.89,2.69-29.26,6.67-26.26,33-43.83,58.55-40.4,28.65,3.85,49.09,26.63,49.34,55a60,60,0,0,1,0,6.57c-.81,8,.45,13.73,8.91,18.27,10.56,5.68,14.17,19.17,10.83,30.54-3.44,11.72-14.44,20.68-26.64,20.9-16.22.29-32.44.07-48.66.07Zm-50.29-52.65c-1.24.39-2.27.7-3.3,1-11.82,3.9-18.76,14.58-17.06,26.28s11.55,19.95,23.92,20.25c2,.05,4,0,5.92,0,29.4,0,58.79.16,88.18-.07,17.44-.14,28.66-16.76,22.36-32.5-3.48-8.7-10.58-13-19.25-15.3,0-8.06,0-15.73,0-23.4A50.07,50.07,0,0,0,167.56,99a49.43,49.43,0,0,0-53.43,40.48C112.24,150.11,112.84,161.23,112.28,172.71Z"/><path id="Path_28" data-name="Path 28" class="cls-13" d="M112.28,172.71c.56-11.48,0-22.6,1.84-33.28A49.44,49.44,0,0,1,167.56,99,50.06,50.06,0,0,1,213,149c0,7.68,0,15.35,0,23.41,8.68,2.3,15.78,6.6,19.26,15.3,6.3,15.74-4.91,32.36-22.36,32.5-29.39.23-58.78.07-88.18.07-2,0-4,0-5.92,0C103.46,220,93.6,211.63,91.92,200s5.24-22.38,17.06-26.28C110,173.41,111,173.1,112.28,172.71Zm50.44,42.11c15.13,0,30.25.05,45.38,0,11.09,0,19.22-6.69,20.33-16.45,1.06-9.44-5.2-17.54-16.1-19.83-4-.83-4.86-2.57-4.76-6.19.2-7.66.11-15.34.05-23-.2-24.9-20-45-44.49-45.13-24.17-.13-44.47,20.17-44.86,44.93-.11,7.67-.19,15.34,0,23,.13,4-1.19,5.62-5.32,6.46-10.33,2.1-16.64,10.33-15.77,19.48,1,9.88,9,16.67,20.12,16.72C132.48,214.88,147.6,214.82,162.72,214.82Z"/><path id="Path_29" data-name="Path 29" class="cls-14" d="M162.72,214.82c-15.12,0-30.24.06-45.37,0-11.1-.05-19.17-6.85-20.12-16.72-.87-9.15,5.44-17.38,15.77-19.48,4.13-.84,5.45-2.43,5.32-6.46-.24-7.67-.16-15.35,0-23,.39-24.76,20.69-45.05,44.86-44.92,24.45.12,44.29,20.23,44.49,45.13.06,7.67.15,15.35-.05,23-.1,3.61.78,5.35,4.76,6.19,10.9,2.29,17.16,10.39,16.1,19.83-1.11,9.76-9.24,16.41-20.33,16.45C193,214.87,177.85,214.82,162.72,214.82Zm.49-5.16c15.12,0,30.23.05,45.35,0,8.73,0,14-4.3,14.76-11.76s-4.17-13.23-12.88-14.45c-5.66-.8-8.05-3.69-8-9.17q.07-12.48,0-25c-.18-22.4-17.44-39.85-39.42-39.89-21.7,0-39.27,17.67-39.55,40q-.15,12.15,0,24.32c.07,5.66-2.06,9-8.12,9.77-8.68,1.17-13.66,7.07-12.94,14.43s6.19,11.74,14.79,11.78C132.53,209.71,147.87,209.66,163.21,209.66Z"/><path id="Path_30" data-name="Path 30" class="cls-15" d="M163.21,209.66c-15.34,0-30.68.05-46,0-8.6,0-14.07-4.51-14.79-11.78s4.26-13.26,12.94-14.43c6.06-.82,8.19-4.11,8.12-9.77q-.15-12.16,0-24.32c.28-22.28,17.85-40,39.55-39.95,22,0,39.24,17.49,39.42,39.89q.09,12.5,0,25c0,5.48,2.35,8.37,8,9.17,8.71,1.22,13.66,7.1,12.88,14.45s-6,11.72-14.76,11.76C193.44,209.71,178.33,209.66,163.21,209.66Zm-.61-5.27c15.14,0,30.27-.08,45.4,0,5.29,0,9.44-1.58,9.82-7.28s-3.6-7.82-8.76-8.61c-8.23-1.24-11.79-5.46-11.87-13.77-.08-8.12,0-16.23,0-24.35-.09-20.2-15-35.78-34.27-35.76-19,0-34.07,15.91-34.18,36,0,8.11.08,16.23,0,24.34-.11,7.85-4,12.48-11.53,13.46-5.43.71-9.77,2.72-9.26,8.76s5.25,7.22,10.63,7.17C133.21,204.3,147.91,204.39,162.6,204.39Z"/><path id="Path_31" data-name="Path 31" class="cls-16" d="M162.6,204.39c-14.69,0-29.39-.09-44.08,0-5.38,0-10.12-1.1-10.63-7.17s3.83-8,9.26-8.76c7.56-1,11.42-5.61,11.53-13.46.12-8.11,0-16.23,0-24.34.11-20.13,15.19-36,34.18-36,19.23,0,34.18,15.56,34.27,35.76,0,8.12-.06,16.23,0,24.35.08,8.31,3.64,12.53,11.87,13.77,5.16.79,9.13,2.93,8.75,8.61s-4.52,7.32-9.81,7.28C192.87,204.31,177.74,204.39,162.6,204.39Zm-.33-5.4c14.91,0,29.83.06,44.73-.1,1.58,0,3.14-1.36,4.71-2.1-1.42-1-2.71-2.51-4.28-2.89-10.49-2.55-15.56-8.75-15.61-19.62,0-8.12,0-16.23,0-24.34-.12-17-12.33-29.74-28.49-29.92s-29,13.06-29.22,30.06c-.09,8.34.08,16.67,0,25-.15,10.23-5.85,16.73-15.81,18.8-1.78.37-3.31,2-4.95,3,1.85.71,3.7,2,5.57,2,14.47.17,28.94.09,43.41.09Z"/><path id="Path_32" data-name="Path 32" class="cls-17" d="M162.27,199c-14.47,0-28.94.08-43.41-.09-1.87,0-3.72-1.32-5.57-2,1.64-1,3.17-2.62,4.95-3,10-2.07,15.66-8.57,15.81-18.8.12-8.33-.05-16.66,0-25,.18-17,13.08-30.24,29.22-30.06s28.37,13,28.49,29.92c.06,8.11,0,16.22,0,24.34.05,10.87,5.12,17.07,15.61,19.62,1.57.38,2.86,1.9,4.28,2.89-1.57.74-3.13,2.09-4.71,2.1C192.09,199.05,177.18,199,162.27,199Zm31.38-5.34c-6.91-11-6.91-11-6.91-24.58,0-6.58.09-13.16,0-19.73-.23-13.64-10.41-24.09-23.5-24.23-12.75-.15-23.58,10.53-24,23.86-.19,5.7-.13,11.4,0,17.1.18,9.64.77,19.35-8.2,27.58Z"/><path id="Path_33" data-name="Path 33" class="cls-18" d="M193.65,193.65H131c9-8.23,8.38-17.94,8.2-27.58-.11-5.7-.17-11.4,0-17.1.44-13.33,11.27-24,24-23.86,13.09.14,23.27,10.59,23.5,24.23.11,6.57,0,13.15,0,19.73C186.74,182.7,186.74,182.7,193.65,193.65Z"/><path id="Path_34" data-name="Path 34" class="cls-19" d="M189.52,191.39H135.6c7.72-7.63,7.21-16.62,7.05-25.56-.09-5.28-.14-10.57,0-15.84.38-12.36,9.7-22.25,20.67-22.12,11.25.13,20,9.82,20.21,22.46.1,6.09,0,12.18,0,18.28C183.57,181.24,183.57,181.24,189.52,191.39Z"/><path id="Path_35" data-name="Path 35" class="cls-20" d="M185.2,188.27H140.55c6.39-6.85,6-14.94,5.83-23-.07-4.75-.12-9.5,0-14.24.32-11.11,8-20,17.12-19.89,9.32.12,16.57,8.83,16.74,20.19.08,5.48,0,11,0,16.44C180.27,179.15,180.27,179.15,185.2,188.27Z"/><path id="Path_36" data-name="Path 36" class="cls-21" d="M180.27,186.16H145.93c4.92-6.29,4.59-13.71,4.49-21.08-.06-4.36-.09-8.72,0-13.07.25-10.19,6.18-18.35,13.16-18.24,7.17.11,12.75,8.09,12.88,18.52.06,5,0,10.05,0,15.08C176.48,177.79,176.48,177.79,180.27,186.16Z"/><path id="Path_37" data-name="Path 37" class="cls-22" d="M174.07,176.7H152.13c3.14-4,2.93-8.76,2.87-13.47,0-2.78-.06-5.57,0-8.35.15-6.51,3.94-11.72,8.41-11.65s8.14,5.17,8.22,11.83c0,3.21,0,6.42,0,9.63C171.65,171.35,171.65,171.35,174.07,176.7Z"/><path id="Path_38" data-name="Path 38" class="cls-8" d="M171.66,174.44H154.53c2.46-3.14,2.29-6.84,2.24-10.52,0-2.17,0-4.34,0-6.52.12-5.08,3.08-9.15,6.57-9.1s6.36,4,6.42,9.24c0,2.51,0,5,0,7.53C169.78,170.27,169.78,170.27,171.66,174.44Z"/></g></g></svg>