<svg xmlns="http://www.w3.org/2000/svg" viewBox="0 0 45 45"><defs><style>.cls-1{fill:#fff;}</style></defs><g id="Layer_2" data-name="Layer 2"><g id="Layer_1-2" data-name="Layer 1"><path class="cls-1" d="M45,22.5A22.5,22.5,0,1,0,19,44.73V29H13.27V22.5H19v-5c0-5.64,3.36-8.75,8.5-8.75a34.67,34.67,0,0,1,5,.44v5.54H29.68c-2.79,0-3.66,1.73-3.66,3.51V22.5h6.24l-1,6.5H26V44.73A22.51,22.51,0,0,0,45,22.5Z"/><path d="M31.26,29l1-6.5H26V18.28c0-1.78.87-3.51,3.66-3.51h2.84V9.23a34.67,34.67,0,0,0-5-.44c-5.14,0-8.5,3.11-8.5,8.75v5H13.27V29H19V44.73a23.08,23.08,0,0,0,7,0V29Z"/></g></g></svg>