<svg xmlns="http://www.w3.org/2000/svg" viewBox="0 0 45 45"><defs><style>.cls-1{fill:#fff;}</style></defs><g id="Layer_2" data-name="Layer 2"><g id="Layer_1-2" data-name="Layer 1"><circle class="cls-1" cx="22.5" cy="22.5" r="22.5"/><path d="M29.48,14A1.55,1.55,0,1,0,31,15.53,1.54,1.54,0,0,0,29.48,14Z"/><path d="M22.61,16a6.5,6.5,0,1,0,6.5,6.5A6.51,6.51,0,0,0,22.61,16Zm0,10.66a4.16,4.16,0,1,1,4.16-4.16A4.16,4.16,0,0,1,22.61,26.63Z"/><path d="M27.77,35.66H17.23a7.93,7.93,0,0,1-7.92-7.93V17.2a7.93,7.93,0,0,1,7.92-7.92H27.77a7.93,7.93,0,0,1,7.92,7.92V27.73A7.93,7.93,0,0,1,27.77,35.66ZM17.23,11.76a5.45,5.45,0,0,0-5.44,5.44V27.73a5.45,5.45,0,0,0,5.44,5.45H27.77a5.45,5.45,0,0,0,5.44-5.45V17.2a5.45,5.45,0,0,0-5.44-5.44Z"/></g></g></svg>